<?xml version="1.0" standalone="no"?>
<!DOCTYPE svg PUBLIC "-//W3C//DTD SVG 20010904//EN"
 "http://www.w3.org/TR/2001/REC-SVG-20010904/DTD/svg10.dtd">
<svg version="1.0" xmlns="http://www.w3.org/2000/svg"
 width="696.000000pt" height="696.000000pt" viewBox="0 0 696.000000 696.000000"
 preserveAspectRatio="xMidYMid meet">
<metadata>
Created by potrace 1.11, written by Peter Selinger 2001-2013
</metadata>
<g transform="translate(0.000000,696.000000) scale(0.100000,-0.100000)"
fill="#000000" stroke="none">
<path d="M1905 5703 c-33 -8 -53 -33 -60 -72 -9 -52 7 -85 70 -148 41 -41 55
-62 55 -84 0 -22 -6 -30 -24 -35 -30 -7 -46 1 -46 26 0 21 -20 31 -48 23 -18
-4 -19 -9 -10 -36 6 -18 22 -43 36 -56 21 -19 33 -22 68 -18 53 6 72 23 80 75
7 45 -17 108 -51 132 -49 35 -76 73 -73 104 2 26 8 32 31 34 22 3 30 -1 34
-18 4 -16 11 -20 27 -16 11 3 24 6 28 6 10 0 -4 43 -21 61 -18 19 -66 29 -96
22z"/>
<path d="M461 5663 c-19 -77 -41 -212 -41 -251 0 -23 -4 -44 -10 -47 -5 -3
-10 -17 -10 -31 0 -21 5 -24 35 -24 35 0 35 0 35 45 0 44 1 45 33 45 31 0 34
-3 43 -42 8 -37 13 -43 37 -46 32 -4 31 -7 11 113 -8 50 -19 115 -24 145 -19
132 -18 130 -61 130 -36 0 -39 -2 -48 -37z m59 -153 c0 -47 -3 -60 -15 -60
-16 0 -20 34 -9 89 11 51 24 35 24 -29z"/>
<path d="M700 5504 l0 -195 28 3 27 3 6 105 c3 58 6 91 7 73 1 -17 7 -35 12
-38 6 -3 10 -21 10 -39 0 -17 4 -36 9 -41 5 -6 11 -21 13 -35 2 -19 9 -25 28
-25 26 0 34 21 47 123 8 64 23 50 23 -20 0 -87 7 -108 36 -108 l24 0 0 195 0
195 -39 0 c-34 0 -39 -3 -44 -27 -3 -16 -12 -68 -20 -117 -20 -113 -32 -126
-46 -50 -6 33 -15 78 -21 102 -5 23 -10 53 -10 67 0 23 -4 25 -45 25 l-45 0 0
-196z"/>
<path d="M1062 5508 l3 -193 28 -3 27 -3 0 70 c0 39 3 71 8 72 59 6 99 25 108
51 3 11 6 51 6 89 1 95 -14 109 -112 109 l-70 0 2 -192z m117 128 c7 -8 11
-36 9 -63 -3 -46 -4 -48 -35 -51 l-33 -3 0 50 c0 27 3 56 6 65 8 20 38 21 53
2z"/>
<path d="M1330 5505 l0 -196 83 3 c80 3 82 4 82 28 0 23 -4 25 -57 28 l-58 3
0 39 c0 58 8 70 46 70 29 0 34 3 34 24 0 21 -5 25 -37 28 -35 3 -38 6 -41 37
-2 19 -1 44 2 57 6 22 12 24 61 24 52 0 55 1 55 25 0 25 -1 25 -85 25 l-85 0
0 -195z"/>
<path d="M1572 5508 l3 -193 28 -3 27 -3 0 74 c0 66 2 75 18 72 9 -2 20 -4 25
-4 4 -1 7 -16 7 -34 0 -18 4 -37 9 -42 5 -6 11 -21 13 -35 3 -25 26 -37 52
-27 11 4 11 15 4 49 -6 24 -14 51 -19 60 -13 26 -11 76 4 81 8 2 12 28 12 81
0 101 -15 116 -116 116 l-69 0 2 -192z m114 127 c10 -10 14 -30 12 -62 -3 -46
-4 -48 -35 -51 l-33 -3 0 65 c0 60 2 66 21 66 11 0 27 -7 35 -15z"/>
<path d="M2156 5678 c-23 -127 -36 -211 -36 -241 0 -20 -4 -39 -10 -42 -5 -3
-10 -24 -10 -46 0 -33 3 -39 21 -39 29 0 49 24 49 60 0 29 2 31 32 28 24 -2
34 -9 36 -23 8 -57 13 -65 36 -65 12 0 25 2 28 5 2 3 -1 42 -9 87 -7 46 -16
103 -19 128 -3 25 -8 52 -11 60 -10 24 -10 28 -12 70 l-1 40 -45 0 c-38 0 -45
-3 -49 -22z m64 -178 c0 -37 -4 -50 -14 -50 -22 0 -27 15 -20 59 10 61 34 54
34 -9z"/>
<path d="M2372 5508 l3 -193 32 -3 32 -3 3 118 c3 116 3 117 16 73 8 -25 18
-53 23 -62 5 -10 9 -23 9 -30 0 -7 7 -32 16 -55 15 -39 20 -43 50 -43 l34 0 0
195 0 195 -35 0 -35 0 -1 -117 -1 -118 -15 50 c-8 28 -19 58 -24 67 -5 10 -9
25 -9 35 0 9 -5 32 -12 50 -11 30 -16 33 -50 33 l-38 0 2 -192z"/>
<path d="M2680 5505 l0 -195 63 0 c51 0 67 4 90 24 l27 23 0 150 c0 147 0 150
-25 171 -20 18 -38 22 -90 22 l-65 0 0 -195z m116 131 c11 -11 14 -44 14 -134
0 -127 -2 -132 -51 -132 -18 0 -19 9 -19 140 0 135 1 140 21 140 11 0 27 -6
35 -14z"/>
<path d="M2808 2854 c-3 -2 -43 -9 -89 -13 -94 -10 -179 -29 -194 -42 -5 -5
-18 -9 -28 -9 -10 0 -33 -7 -50 -16 -56 -29 -67 -34 -76 -34 -15 0 -153 -80
-211 -123 -65 -48 -242 -225 -267 -267 -9 -17 -21 -30 -25 -30 -4 0 -8 -6 -8
-14 0 -8 -6 -21 -13 -28 -7 -7 -21 -30 -30 -50 -10 -20 -22 -40 -27 -43 -6 -3
-10 -15 -10 -26 0 -11 -6 -26 -13 -33 -7 -8 -19 -33 -26 -57 -8 -24 -20 -58
-27 -76 -8 -17 -14 -42 -14 -56 0 -14 -4 -28 -9 -31 -9 -6 -16 -66 -27 -225
-7 -96 11 -318 27 -335 5 -6 9 -21 9 -35 0 -15 7 -39 15 -55 8 -15 15 -36 15
-45 0 -9 12 -38 25 -66 14 -27 25 -54 25 -58 0 -15 148 -242 172 -264 12 -11
37 -36 54 -55 42 -44 103 -98 138 -123 16 -11 37 -28 47 -37 19 -18 30 -24
161 -90 192 -97 301 -121 543 -121 197 0 270 12 430 70 125 46 373 198 389
239 3 8 12 14 21 14 8 0 15 4 15 8 0 4 17 26 38 49 61 66 82 93 82 103 0 5 6
13 13 17 20 13 67 80 67 96 0 8 6 17 13 20 6 2 18 22 26 43 7 22 26 66 42 99
15 33 40 110 55 170 25 99 28 128 28 290 0 152 -3 196 -22 280 -20 86 -54 187
-82 244 -4 9 -14 30 -21 46 -8 17 -20 34 -26 38 -7 4 -13 15 -13 23 0 8 -5 20
-10 27 -18 21 -75 99 -86 118 -6 11 -20 27 -32 38 -12 10 -22 21 -22 24 0 9
-61 67 -71 67 -5 0 -9 4 -9 9 0 14 -136 118 -207 158 -35 19 -63 39 -63 44 0
5 -8 9 -17 9 -25 0 -91 24 -105 38 -7 7 -24 12 -38 12 -14 0 -30 4 -36 8 -15
14 -132 40 -209 47 -103 10 -232 15 -237 9z"/>
<path d="M5305 2848 c-71 -11 -163 -35 -187 -49 -10 -5 -28 -9 -40 -9 -12 0
-29 -6 -37 -13 -9 -7 -36 -20 -61 -27 -25 -7 -54 -21 -65 -30 -11 -10 -42 -30
-70 -46 -27 -15 -51 -32 -53 -36 -2 -4 -10 -8 -17 -8 -7 0 -15 -4 -17 -8 -1
-4 -23 -23 -47 -42 -76 -60 -205 -198 -225 -241 -5 -10 -13 -19 -18 -19 -4 0
-8 -6 -8 -13 0 -8 -9 -22 -19 -31 -11 -10 -23 -31 -26 -46 -3 -15 -15 -36 -26
-46 -10 -9 -19 -23 -19 -29 0 -7 -7 -26 -15 -41 -8 -16 -15 -37 -15 -46 0 -10
-4 -18 -10 -18 -5 0 -10 -15 -10 -32 -1 -18 -7 -44 -15 -58 -8 -14 -14 -39
-15 -55 0 -17 -6 -37 -12 -44 -18 -17 -18 -455 0 -473 6 -6 12 -26 12 -43 0
-17 7 -40 15 -51 8 -10 15 -36 15 -56 0 -21 5 -38 10 -38 6 0 10 -9 10 -19 0
-11 7 -26 15 -35 8 -8 15 -24 15 -35 0 -12 4 -21 8 -21 8 0 42 -69 42 -84 0
-4 9 -17 21 -29 11 -12 28 -35 36 -52 9 -16 22 -35 29 -42 7 -8 30 -35 51 -61
41 -52 134 -142 146 -142 4 0 15 -8 25 -18 26 -25 92 -75 123 -92 74 -42 176
-90 189 -90 9 0 24 -6 35 -14 20 -13 50 -21 188 -51 106 -23 340 -20 468 6
111 23 286 86 341 122 18 13 48 29 66 36 17 7 32 18 32 23 0 5 8 12 18 15 59
22 322 282 322 320 0 7 6 16 13 20 19 13 83 135 129 248 22 54 70 274 62 286
-2 4 0 10 6 14 12 8 14 247 1 261 -4 5 -16 52 -25 104 -21 118 -59 226 -123
343 -8 15 -20 38 -26 50 -7 12 -22 36 -34 54 -13 17 -23 36 -23 42 0 6 -7 11
-15 11 -8 0 -15 5 -15 10 0 37 -234 251 -325 298 -22 11 -51 29 -64 41 -13 12
-31 21 -40 21 -9 0 -38 12 -66 25 -27 14 -60 25 -72 25 -13 0 -23 4 -23 9 0 5
-19 12 -42 16 -24 4 -47 11 -53 15 -25 20 -376 34 -470 18z"/>
<path d="M679 2844 c-11 -3 -19 -21 -24 -52 -3 -26 -17 -70 -31 -98 -26 -56
-100 -138 -133 -149 -12 -3 -21 -11 -21 -16 0 -5 -9 -9 -19 -9 -11 0 -23 -4
-26 -10 -3 -5 -28 -10 -54 -10 -39 0 -50 -4 -60 -22 -8 -17 -11 -131 -9 -433
l3 -410 85 -5 85 -5 3 -599 c1 -422 5 -603 13 -613 9 -10 106 -13 514 -13
l503 0 6 22 c5 21 9 2417 4 2419 -10 4 -826 6 -839 3z"/>
</g>
</svg>
